<svg xmlns="http://www.w3.org/2000/svg" width="800" height="500">
  <rect width="800" height="500" fill="white" stroke="#e0e0e0" stroke-width="1"/>
  <text x="400" y="35" font-family="Arial, sans-serif" font-size="22" font-weight="bold" fill="#1a56a0" text-anchor="middle">CTSIB Condition 3: Foam Surface - Somatosensory Disrupted</text>
  <circle cx="400" cy="140" r="30" fill="#ffdbcb" stroke="#1a56a0" stroke-width="2"/>
  <circle cx="388" cy="135" r="5" fill="#333333"/>
  <circle cx="412" cy="135" r="5" fill="#333333"/>
  <ellipse cx="400" cy="240" rx="45" ry="80" fill="#e3f2fd" stroke="#1a56a0" stroke-width="2"/>
  <line x1="355" y1="220" x2="330" y2="300" stroke="#1a56a0" stroke-width="6"/>
  <line x1="445" y1="220" x2="470" y2="300" stroke="#1a56a0" stroke-width="6"/>
  <line x1="380" y1="320" x2="380" y2="410" stroke="#1a56a0" stroke-width="8"/>
  <line x1="420" y1="320" x2="420" y2="410" stroke="#1a56a0" stroke-width="8"/>
  <path d="M350 420 Q360 410, 370 420 Q380 430, 390 420 Q400 410, 410 420 Q420 430, 430 420 Q440 410, 450 420" fill="#ffeb3b" stroke="#f57f00" stroke-width="2"/>
  <rect x="350" y="420" width="100" height="15" fill="#ffeb3b" stroke="#f57f00" stroke-width="2"/>
  <text x="400" y="450" font-family="Arial, sans-serif" font-size="12" fill="#f57f00" text-anchor="middle" font-weight="bold">Foam Pad</text>
  <circle cx="150" cy="150" r="30" fill="#4caf50" stroke="#2e7d32" stroke-width="3"/>
  <circle cx="140" cy="145" r="4" fill="white"/>
  <circle cx="160" cy="145" r="4" fill="white"/>
  <text x="150" y="200" font-family="Arial, sans-serif" font-size="12" fill="#2e7d32" text-anchor="middle" font-weight="bold">Visual</text>
  <text x="150" y="215" font-family="Arial, sans-serif" font-size="10" fill="#2e7d32" text-anchor="middle">AVAILABLE</text>
  <circle cx="650" cy="150" r="30" fill="#4caf50" stroke="#2e7d32" stroke-width="3"/>
  <path d="M635 145 Q650 140, 665 145" fill="white"/>
  <text x="650" y="200" font-family="Arial, sans-serif" font-size="12" fill="#2e7d32" text-anchor="middle" font-weight="bold">Vestibular</text>
  <text x="650" y="215" font-family="Arial, sans-serif" font-size="10" fill="#2e7d32" text-anchor="middle">AVAILABLE</text>
  <circle cx="400" cy="350" r="30" fill="#ffebee" stroke="#d32f2f" stroke-width="3"/>
  <line x1="380" y1="330" x2="420" y2="370" stroke="#d32f2f" stroke-width="4"/>
  <text x="400" y="390" font-family="Arial, sans-serif" font-size="12" fill="#d32f2f" text-anchor="middle" font-weight="bold">Somatosensory</text>
  <text x="400" y="405" font-family="Arial, sans-serif" font-size="10" fill="#d32f2f" text-anchor="middle">DISRUPTED</text>
  <rect x="250" y="480" width="300" height="40" fill="#e8f5e8" stroke="#2e7d32" stroke-width="2" rx="5"/>
  <text x="400" y="500" font-family="Arial, sans-serif" font-size="12" fill="#2e7d32" text-anchor="middle" font-weight="bold">Tests: Visual + Vestibular Systems</text>
</svg>