<svg xmlns="http://www.w3.org/2000/svg" width="800" height="500">
  <rect width="800" height="500" fill="white" stroke="#e0e0e0" stroke-width="1"/>
  <text x="400" y="35" font-family="Arial, sans-serif" font-size="22" font-weight="bold" fill="#1a56a0" text-anchor="middle">Level 2: Dynamic Balance Training</text>
  <circle cx="400" cy="140" r="30" fill="#ffdbcb" stroke="#1a56a0" stroke-width="2"/>
  <circle cx="388" cy="135" r="5" fill="#333333"/>
  <circle cx="412" cy="135" r="5" fill="#333333"/>
  <ellipse cx="400" cy="240" rx="45" ry="80" fill="#e3f2fd" stroke="#1a56a0" stroke-width="2"/>
  <line x1="355" y1="220" x2="280" y2="180" stroke="#1a56a0" stroke-width="6"/>
  <circle cx="280" cy="180" r="8" fill="#ffdbcb" stroke="#1a56a0" stroke-width="2"/>
  <line x1="445" y1="220" x2="520" y2="260" stroke="#1a56a0" stroke-width="6"/>
  <circle cx="520" cy="260" r="8" fill="#ffdbcb" stroke="#1a56a0" stroke-width="2"/>
  <line x1="380" y1="320" x2="360" y2="420" stroke="#1a56a0" stroke-width="8"/>
  <line x1="420" y1="320" x2="440" y2="420" stroke="#1a56a0" stroke-width="8"/>
  <ellipse cx="360" cy="435" rx="20" ry="10" fill="#333333"/>
  <ellipse cx="440" cy="435" rx="20" ry="10" fill="#333333"/>
  <line x1="150" y1="180" x2="250" y2="180" stroke="#ff9800" stroke-width="3"/>
  <polygon points="240,175 250,180 240,185" fill="#ff9800"/>
  <line x1="550" y1="260" x2="650" y2="260" stroke="#ff9800" stroke-width="3"/>
  <polygon points="640,255 650,260 640,265" fill="#ff9800"/>
  <line x1="500" y1="350" x2="600" y2="350" stroke="#ff9800" stroke-width="3"/>
  <polygon points="590,345 600,350 590,355" fill="#ff9800"/>
  <line x1="300" y1="350" x2="200" y2="350" stroke="#ff9800" stroke-width="3"/>
  <polygon points="210,345 200,350 210,355" fill="#ff9800"/>
  <circle cx="400" cy="250" r="120" fill="none" stroke="#4caf50" stroke-width="2" stroke-dasharray="5,5"/>
  <text x="400" y="400" font-family="Arial, sans-serif" font-size="16" fill="#1a56a0" text-anchor="middle" font-weight="bold">Reaching Activities in Multiple Directions</text>
  <rect x="50" y="420" width="700" height="70" fill="#e8f5e8" stroke="#2e7d32" stroke-width="2" rx="5"/>
  <text x="400" y="445" font-family="Arial, sans-serif" font-size="12" fill="#2e7d32" text-anchor="middle" font-weight="bold">Weight Shifts • Reaching Activities • Controlled Movement • Anterior/Posterior/Lateral</text>
  <text x="400" y="465" font-family="Arial, sans-serif" font-size="11" fill="#333333" text-anchor="middle">Progress from small to larger excursions, increase speed gradually</text>
  <text x="400" y="480" font-family="Arial, sans-serif" font-size="11" fill="#333333" text-anchor="middle">Use visual targets at varying heights and distances</text>
</svg>