<svg xmlns="http://www.w3.org/2000/svg" viewBox="0 0 600 400">
  <!-- Marker definition at top -->
  <defs>
    <marker id="arrowhead" markerWidth="12" markerHeight="8" refX="11" refY="4" orient="auto">
      <polygon points="0 0, 12 4, 0 8" fill="#dc2626"/>
    </marker>
  </defs>
  
  <rect width="600" height="400" fill="white"/>
  
  <!-- Title -->
  <text x="300" y="25" text-anchor="middle" font-family="Arial, sans-serif" font-size="18" font-weight="bold" fill="#1a365d">Spurling's Test Illustration</text>
  
  <!-- Skull in test position -->
  <ellipse cx="150" cy="80" rx="40" ry="35" fill="#e8dcc8" stroke="#8b7355" stroke-width="2" transform="rotate(20 150 80)"/>
  <circle cx="165" cy="75" r="8" fill="none" stroke="#8b7355" stroke-width="1" transform="rotate(20 150 80)"/>
  <path d="M 145 90 L 140 100 L 150 100 Z" fill="#e8dcc8" stroke="#8b7355" stroke-width="1" transform="rotate(20 150 80)"/>
  
  <!-- Cervical spine C1-C7 -->
  <rect x="135" y="110" width="30" height="18" rx="3" fill="#e8dcc8" stroke="#8b7355" stroke-width="2" transform="rotate(15 150 119)"/>
  <text x="180" y="124" font-family="Arial, sans-serif" font-size="11" fill="#333">C1</text>
  
  <rect x="135" y="135" width="30" height="18" rx="3" fill="#e8dcc8" stroke="#8b7355" stroke-width="2" transform="rotate(12 150 144)"/>
  <rect x="145" y="130" width="10" height="10" fill="#e8dcc8" stroke="#8b7355" stroke-width="1"/>
  <text x="180" y="149" font-family="Arial, sans-serif" font-size="11" fill="#333">C2</text>
  
  <rect x="135" y="160" width="30" height="18" rx="3" fill="#e8dcc8" stroke="#8b7355" stroke-width="2" transform="rotate(9 150 169)"/>
  <text x="180" y="174" font-family="Arial, sans-serif" font-size="11" fill="#333">C3</text>
  
  <rect x="135" y="185" width="30" height="18" rx="3" fill="#e8dcc8" stroke="#8b7355" stroke-width="2" transform="rotate(6 150 194)"/>
  <text x="180" y="199" font-family="Arial, sans-serif" font-size="11" fill="#333">C4</text>
  
  <rect x="135" y="210" width="30" height="18" rx="3" fill="#e8dcc8" stroke="#8b7355" stroke-width="2" transform="rotate(3 150 219)"/>
  <text x="180" y="224" font-family="Arial, sans-serif" font-size="11" fill="#333">C5</text>
  
  <rect x="135" y="235" width="30" height="18" rx="3" fill="#e8dcc8" stroke="#8b7355" stroke-width="2"/>
  <text x="180" y="249" font-family="Arial, sans-serif" font-size="11" fill="#333">C6</text>
  
  <rect x="135" y="260" width="30" height="18" rx="3" fill="#e8dcc8" stroke="#8b7355" stroke-width="2"/>
  <rect x="145" y="273" width="10" height="15" fill="#e8dcc8" stroke="#8b7355" stroke-width="1"/>
  <text x="180" y="274" font-family="Arial, sans-serif" font-size="11" fill="#333">C7</text>
  
  <!-- Compressed nerve root -->
  <circle cx="175" cy="200" r="5" fill="#dc2626"/>
  <path d="M 180 205 Q 200 220 220 235" stroke="#ffd700" stroke-width="3" fill="none"/>
  <text x="225" y="230" font-family="Arial, sans-serif" font-size="10" fill="#dc2626">Compressed</text>
  <text x="225" y="245" font-family="Arial, sans-serif" font-size="10" fill="#dc2626">nerve root</text>
  
  <!-- Downward arrow -->
  <path d="M 150 50 L 150 75" stroke="#dc2626" stroke-width="4" fill="none" marker-end="url(#arrowhead)"/>
  
  <!-- Text boxes -->
  <rect x="300" y="60" width="290" height="90" rx="8" fill="#f0f9ff" stroke="#0ea5e9" stroke-width="1"/>
  <text x="445" y="85" text-anchor="middle" font-family="Arial, sans-serif" font-size="14" font-weight="bold" fill="#0369a1">Test Position</text>
  <text x="315" y="105" font-family="Arial, sans-serif" font-size="12" fill="#333">• Cervical extension</text>
  <text x="315" y="123" font-family="Arial, sans-serif" font-size="12" fill="#333">• Side bending and rotated toward</text>
  <text x="325" y="138" font-family="Arial, sans-serif" font-size="12" fill="#333">symptomatic side</text>
  
  <rect x="300" y="160" width="280" height="80" rx="8" fill="#f0fdf4" stroke="#22c55e" stroke-width="1"/>
  <text x="440" y="185" text-anchor="middle" font-family="Arial, sans-serif" font-size="14" font-weight="bold" fill="#166534">Positive Test</text>
  <text x="315" y="205" font-family="Arial, sans-serif" font-size="12" fill="#333">Reproduction of ipsilateral radicular</text>
  <text x="315" y="223" font-family="Arial, sans-serif" font-size="12" fill="#333">symptoms (pain, numbness, tingling)</text>
  
  <rect x="300" y="260" width="280" height="60" rx="8" fill="#fff8dc" stroke="#daa520" stroke-width="1"/>
  <text x="440" y="285" text-anchor="middle" font-family="Arial, sans-serif" font-size="13" font-weight="bold" fill="#854d0e">Diagnostic Accuracy</text>
  <text x="440" y="305" text-anchor="middle" font-family="Arial, sans-serif" font-size="11" fill="#333">Sensitivity: 30-50% | Specificity: 90-100%</text>
  
  <rect x="50" y="340" width="500" height="50" rx="8" fill="#fef2f2" stroke="#ef4444" stroke-width="1"/>
  <text x="300" y="365" text-anchor="middle" font-family="Arial, sans-serif" font-size="12" font-weight="bold" fill="#991b1b">CAUTION</text>
  <text x="300" y="385" text-anchor="middle" font-family="Arial, sans-serif" font-size="11" fill="#333">Contraindicated with cervical instability, myelopathy, or acute fracture</text>
</svg>