<svg xmlns="http://www.w3.org/2000/svg" width="800" height="500">
  <rect width="800" height="500" fill="white" stroke="#e0e0e0" stroke-width="1"/>
  <text x="400" y="35" font-family="Arial, sans-serif" font-size="22" font-weight="bold" fill="#1a56a0" text-anchor="middle">Comprehensive Medication Inventory</text>
  <rect x="50" y="60" width="700" height="380" fill="#f5f5f5" stroke="#333333" stroke-width="2"/>
  <rect x="50" y="60" width="140" height="40" fill="#1a56a0" stroke="#333333" stroke-width="1"/>
  <rect x="190" y="60" width="90" height="40" fill="#1a56a0" stroke="#333333" stroke-width="1"/>
  <rect x="280" y="60" width="140" height="40" fill="#1a56a0" stroke="#333333" stroke-width="1"/>
  <rect x="420" y="60" width="130" height="40" fill="#1a56a0" stroke="#333333" stroke-width="1"/>
  <rect x="550" y="60" width="100" height="40" fill="#1a56a0" stroke="#333333" stroke-width="1"/>
  <rect x="650" y="60" width="100" height="40" fill="#1a56a0" stroke="#333333" stroke-width="1"/>
  <text x="120" y="85" font-family="Arial, sans-serif" font-size="11" fill="white" text-anchor="middle" font-weight="bold">Medication Name</text>
  <text x="235" y="85" font-family="Arial, sans-serif" font-size="11" fill="white" text-anchor="middle" font-weight="bold">Dose</text>
  <text x="350" y="85" font-family="Arial, sans-serif" font-size="11" fill="white" text-anchor="middle" font-weight="bold">Indication</text>
  <text x="485" y="85" font-family="Arial, sans-serif" font-size="11" fill="white" text-anchor="middle" font-weight="bold">Fall Risk</text>
  <text x="600" y="85" font-family="Arial, sans-serif" font-size="11" fill="white" text-anchor="middle" font-weight="bold">Last Review</text>
  <text x="700" y="85" font-family="Arial, sans-serif" font-size="11" fill="white" text-anchor="middle" font-weight="bold">Action</text>
  <rect x="50" y="100" width="700" height="50" fill="white" stroke="#333333" stroke-width="1"/>
  <rect x="60" y="115" width="20" height="20" fill="none" stroke="#333333" stroke-width="2"/>
  <text x="120" y="130" font-family="Arial, sans-serif" font-size="10" fill="#333333">Lorazepam</text>
  <text x="235" y="130" font-family="Arial, sans-serif" font-size="10" fill="#333333">1mg BID</text>
  <text x="350" y="130" font-family="Arial, sans-serif" font-size="10" fill="#333333">Anxiety</text>
  <rect x="455" y="115" width="60" height="20" fill="#d32f2f"/>
  <text x="485" y="128" font-family="Arial, sans-serif" font-size="10" fill="white" text-anchor="middle">HIGH</text>
  <text x="600" y="130" font-family="Arial, sans-serif" font-size="10" fill="#333333">Jan 15, 2026</text>
  <rect x="50" y="150" width="700" height="50" fill="#e8f4fd" stroke="#333333" stroke-width="1"/>
  <rect x="60" y="165" width="20" height="20" fill="none" stroke="#333333" stroke-width="2"/>
  <text x="120" y="180" font-family="Arial, sans-serif" font-size="10" fill="#333333">Amitriptyline</text>
  <text x="235" y="180" font-family="Arial, sans-serif" font-size="10" fill="#333333">25mg QHS</text>
  <text x="350" y="180" font-family="Arial, sans-serif" font-size="10" fill="#333333">Neuropathy</text>
  <rect x="455" y="165" width="60" height="20" fill="#d32f2f"/>
  <text x="485" y="178" font-family="Arial, sans-serif" font-size="10" fill="white" text-anchor="middle">HIGH</text>
  <text x="600" y="180" font-family="Arial, sans-serif" font-size="10" fill="#333333">Dec 2025</text>
  <rect x="50" y="200" width="700" height="50" fill="white" stroke="#333333" stroke-width="1"/>
  <rect x="60" y="215" width="20" height="20" fill="none" stroke="#333333" stroke-width="2"/>
  <text x="120" y="230" font-family="Arial, sans-serif" font-size="10" fill="#333333">Gabapentin</text>
  <text x="235" y="230" font-family="Arial, sans-serif" font-size="10" fill="#333333">300mg TID</text>
  <text x="350" y="230" font-family="Arial, sans-serif" font-size="10" fill="#333333">Pain</text>
  <rect x="455" y="215" width="60" height="20" fill="#d32f2f"/>
  <text x="485" y="228" font-family="Arial, sans-serif" font-size="10" fill="white" text-anchor="middle">HIGH</text>
  <text x="600" y="230" font-family="Arial, sans-serif" font-size="10" fill="#333333">Jan 2026</text>
  <rect x="50" y="250" width="700" height="50" fill="#e8f4fd" stroke="#333333" stroke-width="1"/>
  <rect x="60" y="265" width="20" height="20" fill="none" stroke="#333333" stroke-width="2"/>
  <text x="120" y="280" font-family="Arial, sans-serif" font-size="10" fill="#333333">Lisinopril</text>
  <text x="235" y="280" font-family="Arial, sans-serif" font-size="10" fill="#333333">10mg daily</text>
  <text x="350" y="280" font-family="Arial, sans-serif" font-size="10" fill="#333333">Hypertension</text>
  <rect x="455" y="265" width="60" height="20" fill="#ffeb3b"/>
  <text x="485" y="278" font-family="Arial, sans-serif" font-size="10" fill="#333333" text-anchor="middle">LOW</text>
  <text x="600" y="280" font-family="Arial, sans-serif" font-size="10" fill="#333333">Jan 20, 2026</text>
  <rect x="50" y="300" width="700" height="50" fill="white" stroke="#333333" stroke-width="1"/>
  <rect x="60" y="315" width="20" height="20" fill="none" stroke="#333333" stroke-width="2"/>
  <text x="120" y="330" font-family="Arial, sans-serif" font-size="10" fill="#333333">Furosemide</text>
  <text x="235" y="330" font-family="Arial, sans-serif" font-size="10" fill="#333333">20mg daily</text>
  <text x="350" y="330" font-family="Arial, sans-serif" font-size="10" fill="#333333">Edema</text>
  <rect x="455" y="315" width="60" height="20" fill="#ffeb3b"/>
  <text x="485" y="328" font-family="Arial, sans-serif" font-size="10" fill="#333333" text-anchor="middle">LOW</text>
  <text x="600" y="330" font-family="Arial, sans-serif" font-size="10" fill="#333333">Jan 20, 2026</text>
  <rect x="50" y="350" width="700" height="50" fill="#e8f4fd" stroke="#333333" stroke-width="1"/>
  <rect x="60" y="365" width="20" height="20" fill="none" stroke="#333333" stroke-width="2"/>
  <text x="120" y="380" font-family="Arial, sans-serif" font-size="10" fill="#333333">Quetiapine</text>
  <text x="235" y="380" font-family="Arial, sans-serif" font-size="10" fill="#333333">25mg QHS</text>
  <text x="350" y="380" font-family="Arial, sans-serif" font-size="10" fill="#333333">Sleep</text>
  <rect x="455" y="365" width="60" height="20" fill="#ff9800"/>
  <text x="485" y="378" font-family="Arial, sans-serif" font-size="10" fill="white" text-anchor="middle">MOD</text>
  <text x="600" y="380" font-family="Arial, sans-serif" font-size="10" fill="#333333">Nov 2025</text>
  <rect x="50" y="450" width="700" height="40" fill="#e8f5e8" stroke="#2e7d32" stroke-width="2" rx="5"/>
  <text x="400" y="475" font-family="Arial, sans-serif" font-size="12" fill="#2e7d32" text-anchor="middle" font-weight="bold">Review HIGH risk medications • Assess necessity • Consider deprescribing • Monitor orthostatic BP</text>
</svg>