<svg xmlns="http://www.w3.org/2000/svg" width="800" height="500">
  <rect width="800" height="500" fill="white" stroke="#e0e0e0" stroke-width="1"/>
  <text x="400" y="35" font-family="Arial, sans-serif" font-size="22" font-weight="bold" fill="#1a56a0" text-anchor="middle">Level 1: Static Balance Training</text>
  <rect x="100" y="80" width="600" height="300" fill="#f5f5f5" stroke="#333333" stroke-width="2"/>
  <rect x="120" y="90" width="20" height="280" fill="#90a4ae" stroke="#546e7a" stroke-width="2"/>
  <rect x="660" y="90" width="20" height="280" fill="#90a4ae" stroke="#546e7a" stroke-width="2"/>
  <text x="130" y="150" font-family="Arial, sans-serif" font-size="10" fill="white" transform="rotate(90, 130, 150)">Parallel Bars</text>
  <circle cx="400" cy="140" r="25" fill="#ffdbcb" stroke="#1a56a0" stroke-width="2"/>
  <ellipse cx="400" cy="220" rx="35" ry="60" fill="#e3f2fd" stroke="#1a56a0" stroke-width="2"/>
  <line x1="365" y1="200" x2="340" y2="230" stroke="#1a56a0" stroke-width="5"/>
  <line x1="435" y1="200" x2="460" y2="230" stroke="#1a56a0" stroke-width="5"/>
  <circle cx="340" cy="230" r="6" fill="#ffdbcb" stroke="#1a56a0" stroke-width="2"/>
  <circle cx="460" cy="230" r="6" fill="#ffdbcb" stroke="#1a56a0" stroke-width="2"/>
  <line x1="380" y1="280" x2="375" y2="360" stroke="#1a56a0" stroke-width="7"/>
  <line x1="420" y1="280" x2="400" y2="340" stroke="#1a56a0" stroke-width="7"/>
  <line x1="400" y1="340" x2="385" y2="360" stroke="#1a56a0" stroke-width="7"/>
  <ellipse cx="375" cy="375" rx="18" ry="9" fill="#333333"/>
  <ellipse cx="385" cy="375" rx="18" ry="9" fill="#333333"/>
  <text x="400" y="420" font-family="Arial, sans-serif" font-size="16" fill="#1a56a0" text-anchor="middle" font-weight="bold">Tandem Stance - Near Support Available</text>
  <rect x="50" y="440" width="700" height="50" fill="#e8f5e8" stroke="#2e7d32" stroke-width="2" rx="5"/>
  <text x="400" y="460" font-family="Arial, sans-serif" font-size="12" fill="#2e7d32" text-anchor="middle" font-weight="bold">Reduced Base of Support • Stable Surface • Near Parallel Bars/Support</text>
  <text x="400" y="475" font-family="Arial, sans-serif" font-size="11" fill="#333333" text-anchor="middle">Start with feet together, progress to tandem, then single leg stance</text>
</svg>